<svg xmlns="http://www.w3.org/2000/svg" viewBox="0 0 420 260" width="420" height="260" font-family="'Courier New', monospace">
  <defs>
    <linearGradient id="cardBg" x1="0%" y1="0%" x2="100%" y2="100%">
      <stop offset="0%" style="stop-color:#f0f0f0;stop-opacity:1" />
      <stop offset="100%" style="stop-color:#e0e0e0;stop-opacity:1" />
    </linearGradient>
    <linearGradient id="headerBg" x1="0%" y1="0%" x2="100%" y2="0%">
      <stop offset="0%" style="stop-color:#1a1a1a;stop-opacity:1" />
      <stop offset="100%" style="stop-color:#2d2d2d;stop-opacity:1" />
    </linearGradient>
    <linearGradient id="skillBar" x1="0%" y1="0%" x2="100%" y2="0%">
      <stop offset="0%" style="stop-color:#4CAF50;stop-opacity:1" />
      <stop offset="100%" style="stop-color:#81C784;stop-opacity:1" />
    </linearGradient>
    <filter id="shadow">
      <feDropShadow dx="3" dy="5" stdDeviation="4" flood-opacity="0.35"/>
    </filter>
    <filter id="innerShadow">
      <feDropShadow dx="0" dy="1" stdDeviation="1" flood-opacity="0.2"/>
    </filter>
  </defs>

  <!-- Card outer border -->
  <rect x="4" y="4" width="412" height="252" rx="14" ry="14" fill="#111" filter="url(#shadow)"/>
  <!-- Card body -->
  <rect x="4" y="4" width="412" height="252" rx="14" ry="14" fill="url(#cardBg)" stroke="#888" stroke-width="1.5"/>
  <!-- Inner border -->
  <rect x="10" y="10" width="400" height="240" rx="10" ry="10" fill="none" stroke="#999" stroke-width="0.8"/>

  <!-- TOP HEADER BAND -->
  <rect x="4" y="4" width="412" height="44" rx="14" ry="14" fill="url(#headerBg)"/>
  <rect x="4" y="30" width="412" height="18" fill="url(#headerBg)"/>

  <!-- HxH Logo Left (X with diamonds) -->
  <g transform="translate(18, 8)">
    <!-- X shape -->
    <line x1="0" y1="2" x2="26" y2="30" stroke="white" stroke-width="5" stroke-linecap="round"/>
    <line x1="26" y1="2" x2="0" y2="30" stroke="white" stroke-width="5" stroke-linecap="round"/>
    <!-- Red diamond center -->
    <polygon points="13,6 20,16 13,26 6,16" fill="#CC1111"/>
    <polygon points="13,10 18,16 13,22 8,16" fill="#FF2222"/>
  </g>

  <!-- HUNTER ASSOCIATION TEXT -->
  <text x="214" y="22" text-anchor="middle" font-family="'Georgia', serif" font-size="11" font-weight="bold" fill="#ffffff" letter-spacing="3">HUNTER ASSOCIATION</text>
  <text x="214" y="36" text-anchor="middle" font-family="'Courier New', monospace" font-size="7.5" fill="#aaaaaa" letter-spacing="2">OFFICIAL MEMBERSHIP CARD</text>

  <!-- HxH Logo Right -->
  <g transform="translate(376, 8)">
    <line x1="0" y1="2" x2="26" y2="30" stroke="white" stroke-width="5" stroke-linecap="round"/>
    <line x1="26" y1="2" x2="0" y2="30" stroke="white" stroke-width="5" stroke-linecap="round"/>
    <polygon points="13,6 20,16 13,26 6,16" fill="#CC1111"/>
    <polygon points="13,10 18,16 13,22 8,16" fill="#FF2222"/>
  </g>

  <!-- LEFT: Photo placeholder area -->
  <rect x="16" y="52" width="72" height="88" rx="4" fill="#cccccc" stroke="#999" stroke-width="1"/>
  <rect x="18" y="54" width="68" height="84" rx="3" fill="#b0c4b1"/>
  <!-- Silhouette hint -->
  <circle cx="52" cy="78" r="18" fill="#7a9e7e"/>
  <ellipse cx="52" cy="108" rx="26" ry="18" fill="#7a9e7e"/>
  <text x="52" y="148" text-anchor="middle" font-family="'Courier New'" font-size="6" fill="#555">PHOTO</text>

  <!-- RANK BADGE -->
  <rect x="16" y="146" width="72" height="20" rx="3" fill="#1a1a1a"/>
  <text x="52" y="160" text-anchor="middle" font-family="'Georgia', serif" font-size="9" font-weight="bold" fill="#FFD700" letter-spacing="1">★ S-RANK ★</text>

  <!-- MEMBER INFO BLOCK -->
  <rect x="96" y="52" width="200" height="114" rx="4" fill="rgba(255,255,255,0.6)" stroke="#ccc" stroke-width="0.8"/>

  <text x="104" y="67" font-family="'Courier New'" font-size="7" fill="#777" letter-spacing="1">HUNTER NAME</text>
  <text x="104" y="80" font-family="'Georgia', serif" font-size="13" font-weight="bold" fill="#111">Ananya Singh</text>

  <line x1="104" y1="84" x2="290" y2="84" stroke="#ddd" stroke-width="0.8"/>

  <text x="104" y="97" font-family="'Courier New'" font-size="7" fill="#777" letter-spacing="1">SPECIALIZATION</text>
  <text x="104" y="109" font-family="'Georgia', serif" font-size="9" fill="#1a1a1a">AI / ML · Computer Vision</text>
  <text x="104" y="120" font-family="'Georgia', serif" font-size="9" fill="#1a1a1a">Generative AI · MLOps</text>

  <line x1="104" y1="126" x2="290" y2="126" stroke="#ddd" stroke-width="0.8"/>

  <text x="104" y="138" font-family="'Courier New'" font-size="7" fill="#777" letter-spacing="1">NEN TYPE</text>
  <text x="104" y="150" font-family="'Georgia', serif" font-size="9" fill="#CC1111" font-weight="bold">Enhancement  ●  Conjuration</text>

  <text x="104" y="162" font-family="'Courier New'" font-size="7" fill="#777" letter-spacing="1">LICENSE NO.</text>
  <text x="176" y="162" font-family="'Courier New'" font-size="7" fill="#111">2025-AIML-0815</text>

  <!-- BARCODE style lines -->
  <g transform="translate(302, 52)">
    <rect x="0" y="0" width="102" height="80" rx="3" fill="#f8f8f8" stroke="#ccc" stroke-width="0.8"/>
    <text x="51" y="12" text-anchor="middle" font-family="'Courier New'" font-size="6" fill="#888">NEN OUTPUT SCAN</text>
    <!-- Barcode bars -->
    <rect x="8" y="16" width="3" height="52" fill="#111"/>
    <rect x="13" y="16" width="1" height="52" fill="#111"/>
    <rect x="16" y="16" width="4" height="52" fill="#111"/>
    <rect x="22" y="16" width="2" height="52" fill="#111"/>
    <rect x="26" y="16" width="5" height="52" fill="#111"/>
    <rect x="33" y="16" width="1" height="52" fill="#111"/>
    <rect x="36" y="16" width="3" height="52" fill="#111"/>
    <rect x="41" y="16" width="2" height="52" fill="#111"/>
    <rect x="45" y="16" width="4" height="52" fill="#111"/>
    <rect x="51" y="16" width="1" height="52" fill="#111"/>
    <rect x="54" y="16" width="3" height="52" fill="#111"/>
    <rect x="59" y="16" width="5" height="52" fill="#111"/>
    <rect x="66" y="16" width="2" height="52" fill="#111"/>
    <rect x="70" y="16" width="4" height="52" fill="#111"/>
    <rect x="76" y="16" width="1" height="52" fill="#111"/>
    <rect x="79" y="16" width="3" height="52" fill="#111"/>
    <rect x="84" y="16" width="2" height="52" fill="#111"/>
    <rect x="88" y="16" width="5" height="52" fill="#111"/>
    <rect x="95" y="16" width="1" height="52" fill="#111"/>
    <text x="51" y="80" text-anchor="middle" font-family="'Courier New'" font-size="5.5" fill="#555">2025-08-15-UPES-AIML</text>
  </g>

  <!-- NEN LEVEL BADGE area -->
  <rect x="302" y="138" width="102" height="28" rx="3" fill="#1a1a1a"/>
  <text x="353" y="150" text-anchor="middle" font-family="'Courier New'" font-size="6.5" fill="#aaa" letter-spacing="1">NEN LEVEL</text>
  <text x="353" y="162" text-anchor="middle" font-family="'Georgia', serif" font-size="10" font-weight="bold" fill="#4CAF50">9000 / 10000</text>

  <!-- SKILLS SECTION DIVIDER -->
  <line x1="16" y1="174" x2="404" y2="174" stroke="#bbb" stroke-width="0.8"/>
  <rect x="140" y="169" width="140" height="12" rx="6" fill="#1a1a1a"/>
  <text x="210" y="178" text-anchor="middle" font-family="'Courier New'" font-size="7" fill="#fff" letter-spacing="2">⚡ ABILITIES ⚡</text>

  <!-- SKILL BARS -->
  <!-- Col 1 -->
  <text x="18" y="193" font-family="'Courier New'" font-size="7.5" fill="#333" letter-spacing="0.5">Python</text>
  <rect x="18" y="196" width="88" height="5" rx="2.5" fill="#ddd"/>
  <rect x="18" y="196" width="82" height="5" rx="2.5" fill="url(#skillBar)"/>

  <text x="18" y="211" font-family="'Courier New'" font-size="7.5" fill="#333" letter-spacing="0.5">Deep Learning</text>
  <rect x="18" y="214" width="88" height="5" rx="2.5" fill="#ddd"/>
  <rect x="18" y="214" width="78" height="5" rx="2.5" fill="url(#skillBar)"/>

  <text x="18" y="229" font-family="'Courier New'" font-size="7.5" fill="#333" letter-spacing="0.5">Computer Vision</text>
  <rect x="18" y="232" width="88" height="5" rx="2.5" fill="#ddd"/>
  <rect x="18" y="232" width="80" height="5" rx="2.5" fill="url(#skillBar)"/>

  <text x="18" y="247" font-family="'Courier New'" font-size="7.5" fill="#333" letter-spacing="0.5">Generative AI</text>
  <rect x="18" y="250" width="88" height="5" rx="2.5" fill="#ddd"/>
  <rect x="18" y="250" width="74" height="5" rx="2.5" fill="url(#skillBar)"/>

  <!-- Col 2 -->
  <text x="118" y="193" font-family="'Courier New'" font-size="7.5" fill="#333" letter-spacing="0.5">NLP</text>
  <rect x="118" y="196" width="88" height="5" rx="2.5" fill="#ddd"/>
  <rect x="118" y="196" width="70" height="5" rx="2.5" fill="url(#skillBar)"/>

  <text x="118" y="211" font-family="'Courier New'" font-size="7.5" fill="#333" letter-spacing="0.5">PySpark / SQL</text>
  <rect x="118" y="214" width="88" height="5" rx="2.5" fill="#ddd"/>
  <rect x="118" y="214" width="64" height="5" rx="2.5" fill="url(#skillBar)"/>

  <text x="118" y="229" font-family="'Courier New'" font-size="7.5" fill="#333" letter-spacing="0.5">MLOps / AWS</text>
  <rect x="118" y="232" width="88" height="5" rx="2.5" fill="#ddd"/>
  <rect x="118" y="232" width="68" height="5" rx="2.5" fill="url(#skillBar)"/>

  <text x="118" y="247" font-family="'Courier New'" font-size="7.5" fill="#333" letter-spacing="0.5">Data Analysis</text>
  <rect x="118" y="250" width="88" height="5" rx="2.5" fill="#ddd"/>
  <rect x="118" y="250" width="76" height="5" rx="2.5" fill="url(#skillBar)"/>

  <!-- Col 3 -->
  <text x="218" y="193" font-family="'Courier New'" font-size="7.5" fill="#333" letter-spacing="0.5">TensorFlow</text>
  <rect x="218" y="196" width="88" height="5" rx="2.5" fill="#ddd"/>
  <rect x="218" y="196" width="75" height="5" rx="2.5" fill="url(#skillBar)"/>

  <text x="218" y="211" font-family="'Courier New'" font-size="7.5" fill="#333" letter-spacing="0.5">PyTorch</text>
  <rect x="218" y="214" width="88" height="5" rx="2.5" fill="#ddd"/>
  <rect x="218" y="214" width="72" height="5" rx="2.5" fill="url(#skillBar)"/>

  <text x="218" y="229" font-family="'Courier New'" font-size="7.5" fill="#333" letter-spacing="0.5">Scikit-Learn</text>
  <rect x="218" y="232" width="88" height="5" rx="2.5" fill="#ddd"/>
  <rect x="218" y="232" width="78" height="5" rx="2.5" fill="url(#skillBar)"/>

  <text x="218" y="247" font-family="'Courier New'" font-size="7.5" fill="#333" letter-spacing="0.5">OpenCV</text>
  <rect x="218" y="250" width="88" height="5" rx="2.5" fill="#ddd"/>
  <rect x="218" y="250" width="73" height="5" rx="2.5" fill="url(#skillBar)"/>

  <!-- Col 4 -->
  <text x="318" y="193" font-family="'Courier New'" font-size="7.5" fill="#333" letter-spacing="0.5">YOLOv5</text>
  <rect x="318" y="196" width="86" height="5" rx="2.5" fill="#ddd"/>
  <rect x="318" y="196" width="78" height="5" rx="2.5" fill="url(#skillBar)"/>

  <text x="318" y="211" font-family="'Courier New'" font-size="7.5" fill="#333" letter-spacing="0.5">GAN / LSTM</text>
  <rect x="318" y="214" width="86" height="5" rx="2.5" fill="#ddd"/>
  <rect x="318" y="214" width="70" height="5" rx="2.5" fill="url(#skillBar)"/>

  <text x="318" y="229" font-family="'Courier New'" font-size="7.5" fill="#333" letter-spacing="0.5">Stable Diff.</text>
  <rect x="318" y="232" width="86" height="5" rx="2.5" fill="#ddd"/>
  <rect x="318" y="232" width="66" height="5" rx="2.5" fill="url(#skillBar)"/>

  <text x="318" y="247" font-family="'Courier New'" font-size="7.5" fill="#333" letter-spacing="0.5">Git / DevOps</text>
  <rect x="318" y="250" width="86" height="5" rx="2.5" fill="#ddd"/>
  <rect x="318" y="250" width="71" height="5" rx="2.5" fill="url(#skillBar)"/>

  <!-- Bottom strip -->
  <rect x="4" y="240" width="412" height="16" rx="0" fill="#1a1a1a"/>
  <rect x="4" y="248" width="412" height="8" rx="0" ry="0" fill="#1a1a1a"/>
  <rect x="4" y="248" width="412" height="8" rx="14" ry="14" fill="#1a1a1a"/>
  <text x="214" y="251" text-anchor="middle" font-family="'Courier New'" font-size="6" fill="#555" letter-spacing="3">ISSUED BY HUNTER ASSOCIATION  ·  NOT TRANSFERABLE  ·  HA-2025</text>
</svg>
